<?xml version="1.0" encoding="utf-8"?>
<!-- Generator: Adobe Illustrator 27.5.0, SVG Export Plug-In . SVG Version: 6.00 Build 0)  -->
<svg version="1.1" xmlns="http://www.w3.org/2000/svg" xmlns:xlink="http://www.w3.org/1999/xlink" x="0px" y="0px"
	 viewBox="0 0 500 500" style="enable-background:new 0 0 500 500;" xml:space="preserve">
<g id="BACKGROUND">
	<rect style="fill:#5B89A6;" width="500" height="500"/>
</g>
<g id="OBJECTS">
	<g>
		<defs>
			<rect id="SVGID_1_" x="0.512" width="500" height="500"/>
		</defs>
		<clipPath id="SVGID_00000138567943526368914900000014338271589807342985_">
			<use xlink:href="#SVGID_1_"  style="overflow:visible;"/>
		</clipPath>
		<g style="clip-path:url(#SVGID_00000138567943526368914900000014338271589807342985_);">
			<path style="fill:#96C4E0;" d="M161.237,245.352c-2.013-1.669-3.251-66.705,36.829-80.542
				c40.08-13.837,112.101-7.601,141.688,30.675c29.587,38.276,2.45,124.065,14.196,122.45c0,0,47.552-4.512-10.862,20.005
				c-58.414,24.517-106.526,45.84-149.033-23.892C151.547,244.315,161.237,245.352,161.237,245.352z"/>
			<g>
				<g>
					<path style="fill:#0E2C4A;" d="M313.413,51.704c0,0-3.022-28.018-34.102-31.788c-21.257-2.579-24.689,6.479-47.112,10.212
						c-22.469,3.74-24.003,51.382-10.466,57.502C248.877,99.902,320.439,87.403,313.413,51.704z"/>
					<path style="fill:#558CA3;" d="M226.168,87.003c0,0-4.435-7.666-7.638,0c-3.337,7.987,4.2,25.299,9.387,22.829
						C233.105,107.362,226.168,87.003,226.168,87.003z"/>
					<path style="fill:#0E2C4A;" d="M287.388,48.235c0,0,17.25-11.675,29.024-6.655c21.515,9.173,12.729,35.692,18.677,54.513
						c9.359,29.618,8.829,43.889-0.925,48.615c-42.728,20.702-126.964,9.687-132.177-25.595
						C193.96,64.792,287.388,48.235,287.388,48.235z"/>
					<path style="fill:#65A7C2;" d="M242.575,166.038c10.462-22.83,0.697-54.858,0.697-54.858l49.464,5.378l-10.878,47.456l0,0
						C263.29,175.897,236.116,180.133,242.575,166.038z"/>
					<path style="fill:#65A7C2;" d="M241.448,53.376c-7.815-2.553-14.432,8.115-16.419,16.092
						c-5.486,22.015-8.467,54.061,14.523,69.619c7.123,4.82,44.946,1.304,53.184-22.53l0,0c0,0,5.295,3.334,10.16-4.998
						c6.989-11.97-4.686-31.352-14.29-12.26c0,0-2.385-0.657-2.385-6.033c0-16.387,10.716-35.619-9.768-34.486
						C263.667,59.488,250.757,56.418,241.448,53.376z"/>
					<path style="fill:#0E2C4A;" d="M262.671,90.779c-0.296,2.125,0.479,3.989,1.731,4.163c1.252,0.175,2.508-1.406,2.804-3.531
						s-0.479-3.989-1.731-4.164C264.222,87.073,262.967,88.654,262.671,90.779z"/>
					<path style="fill:#0E2C4A;" d="M234.203,86.19c-0.296,2.125,0.479,3.989,1.731,4.163c1.252,0.175,2.508-1.406,2.804-3.531
						c0.296-2.125-0.479-3.989-1.731-4.164C235.754,82.484,234.499,84.065,234.203,86.19z"/>
					<g>
						<g>
							<g>
								<path style="fill:#425B69;" d="M245.914,107.438c-0.01,0.029-0.398-0.078-1.085-0.326c-0.675-0.271-1.653-0.689-2.749-1.418
									c-0.542-0.37-1.126-0.803-1.656-1.386c-0.503-0.578-1.064-1.328-1.029-2.314c-0.027-0.244,0.116-0.469,0.175-0.707
									c0.116-0.211,0.27-0.41,0.42-0.603c0.185-0.154,0.372-0.31,0.561-0.468c0.21-0.115,0.422-0.232,0.636-0.349
									c0.427-0.211,0.926-0.344,1.345-0.534l0.642-0.27c0.217-0.086,0.4-0.249,0.604-0.37c1.595-1.068,2.68-2.653,3.511-4.115
									c0.834-1.478,1.42-2.903,1.877-4.108c0.454-1.208,0.771-2.205,0.987-2.896c0.212-0.692,0.328-1.075,0.361-1.069
									c0.033,0.007-0.021,0.407-0.178,1.117c-0.161,0.709-0.43,1.728-0.846,2.963c-0.42,1.232-0.978,2.688-1.809,4.209
									c-0.83,1.504-1.924,3.154-3.634,4.303c-0.22,0.131-0.415,0.301-0.651,0.397l-0.7,0.293c-0.461,0.202-0.89,0.31-1.3,0.507
									c-0.812,0.35-1.524,0.969-1.552,1.733c-0.046,0.759,0.417,1.463,0.884,2.013c0.484,0.559,1.037,0.995,1.551,1.372
									C244.384,106.879,245.958,107.341,245.914,107.438z"/>
							</g>
						</g>
					</g>
					<g>
						<g>
							<g>
								<path style="fill:#425B69;" d="M260.525,71.514c0.031-0.012,0.168,0.211,0.384,0.618c0.191,0.421,0.557,0.979,1.008,1.665
									c0.948,1.343,2.493,3.032,4.459,4.611c1.953,1.592,3.867,2.855,5.275,3.726c1.408,0.875,2.306,1.375,2.276,1.436
									c-0.029,0.06-0.986-0.335-2.45-1.14c-1.463-0.801-3.427-2.031-5.41-3.647c-1.994-1.601-3.541-3.371-4.437-4.796
									c-0.426-0.728-0.753-1.323-0.895-1.777C260.57,71.772,260.494,71.526,260.525,71.514z"/>
							</g>
						</g>
					</g>
					<g>
						<g>
							<g>
								<path style="fill:#425B69;" d="M234.602,71.546c0.02-0.027,0.2,0.051,0.505,0.213c0.316,0.141,0.71,0.458,1.289,0.66
									c1.084,0.53,2.77,0.993,4.577,0.628c1.817-0.316,3.232-1.342,4.17-2.098c0.93-0.794,1.417-1.387,1.473-1.346
									c0.054,0.035-0.344,0.715-1.243,1.6c-0.904,0.843-2.359,1.976-4.309,2.32c-1.942,0.392-3.741-0.17-4.817-0.796
									c-0.582-0.253-0.954-0.619-1.244-0.812C234.725,71.702,234.582,71.573,234.602,71.546z"/>
							</g>
						</g>
					</g>
					<g>
						<g>
							<g>
								<path style="fill:#425B69;" d="M242.575,115.828c-0.007-0.033,0.168-0.086,0.496-0.153c0.165-0.031,0.367-0.068,0.601-0.112
									c0.236-0.035,0.509-0.011,0.811-0.016c1.202,0.006,2.891,0.509,4.343,1.66c1.434,1.163,2.411,2.531,2.989,3.566
									c0.584,1.039,0.812,1.746,0.75,1.771c-0.062,0.027-0.396-0.619-1.043-1.591c-0.64-0.97-1.632-2.258-2.996-3.365
									c-1.382-1.091-2.924-1.604-4.065-1.699c-0.286-0.017-0.547-0.065-0.776-0.056c-0.23,0.011-0.428,0.021-0.59,0.028
									C242.768,115.871,242.582,115.861,242.575,115.828z"/>
							</g>
						</g>
					</g>
					<g>
						<g>
							<g>
								<path style="fill:#425B69;" d="M249.735,140.676c0-0.033,0.483-0.094,1.353-0.175c0.873-0.042,2.12-0.251,3.659-0.503
									c3.064-0.585,7.232-1.751,11.665-3.512c4.44-1.741,8.348-3.596,11.139-5.008c1.392-0.715,2.518-1.294,3.297-1.694
									c0.777-0.403,1.209-0.624,1.226-0.595c0.017,0.028-0.383,0.305-1.134,0.759c-0.749,0.458-1.851,1.089-3.231,1.834
									c-2.758,1.494-6.659,3.406-11.122,5.156c-4.456,1.77-8.676,2.895-11.782,3.398c-1.561,0.211-2.823,0.37-3.707,0.354
									C250.22,140.712,249.736,140.709,249.735,140.676z"/>
							</g>
						</g>
					</g>
					<g>
						<g>
							<g>
								<path style="fill:#425B69;" d="M291.348,105.33c0.029-0.02,0.234,0.237,0.647,0.653c0.416,0.381,1.056,1.052,2.032,1.231
									c0.48,0.084,1.007-0.089,1.414-0.508c0.391-0.434,0.796-0.955,0.807-1.585c0.018-0.624-0.354-1.248-0.857-1.768
									c-0.507-0.526-1.142-0.978-1.825-1.379c-0.194-0.116-0.392-0.223-0.587-0.325c-0.221-0.11-0.298-0.158-0.786-0.371
									l0.162-0.468l0.098-0.258l0.204-0.503c0.139-0.331,0.286-0.652,0.44-0.962c0.299-0.624,0.645-1.196,0.992-1.727
									c0.7-1.055,1.53-1.888,2.38-2.355c0.853-0.504,1.692-0.449,2.202-0.395c0.509,0.157,0.773,0.257,0.762,0.286
									c-0.011,0.029-0.295-0.012-0.786-0.111c-0.493,0.006-1.249-0.002-2.017,0.501c-0.766,0.469-1.528,1.276-2.182,2.311
									c-0.324,0.52-0.65,1.08-0.933,1.692c-0.147,0.303-0.286,0.618-0.419,0.942l-0.195,0.491l-0.093,0.25
									c-0.031,0.088-0.009,0.026-0.016,0.046c-0.087-0.043,0.228,0.106,0.409,0.201c0.203,0.106,0.409,0.217,0.61,0.337
									c0.71,0.418,1.375,0.891,1.924,1.47c0.539,0.567,0.992,1.305,0.959,2.109c-0.035,0.81-0.534,1.399-0.975,1.862
									c-0.477,0.476-1.18,0.687-1.747,0.556c-1.137-0.269-1.721-1.014-2.116-1.442
									C291.475,105.644,291.321,105.347,291.348,105.33z"/>
							</g>
						</g>
					</g>
				</g>
			</g>
		</g>
		<g style="clip-path:url(#SVGID_00000138567943526368914900000014338271589807342985_);">
			<path style="fill:#0E2C4A;" d="M72.022,108.234c0,0-17.793-12.042-29.937-6.864c-22.192,9.462-21.455,43.578-14.606,62.751
				c11.257,31.509-68.095,83.762-41.754,139.18c43.956,92.478,156.773-29.066,178.15-38.508
				C175.934,259.465,72.022,108.234,72.022,108.234z"/>
			<path style="fill:#5B89A6;" d="M-6.146,445.829c-15.229-42.804,44.484-42.687,37.222-163.971
				c-2.883-48.153,71.67-77.85,128.899-50.951c57.229,26.899,33.166,212.818,33.166,212.818S25.323,534.279-6.146,445.829z"/>
			<path style="fill:#4A7087;" d="M63.769,355.747c0,0-74.615,92.14-80.942,152.861s-3.633,78.68-3.633,78.68
				s190.342-16.625,189.005-21.782c-1.337-5.156-8.292-208.806-8.292-208.806S95.178,369.836,63.769,355.747z"/>
			<g>
				<path style="fill:#0E2C4A;" d="M45.179,111.813c0,0,3.117-28.9,35.175-32.788c21.925-2.66,25.465,6.683,48.594,10.533
					c23.175,3.858,24.758,52.999,10.795,59.311C111.744,161.527,37.932,148.634,45.179,111.813z"/>
				<path style="fill:#558CA3;" d="M135.168,148.222c0,0,4.574-7.907,7.878,0c3.442,8.238-4.332,26.095-9.683,23.547
					C128.013,169.221,135.168,148.222,135.168,148.222z"/>
				<path style="fill:#65A7C2;" d="M113.093,216.801c-6.594-22.691,4.433-43.642,4.433-43.642l-51.02,5.547l11.22,48.948l0,0
					C96.878,239.912,117.556,232.159,113.093,216.801z"/>
				<path style="fill:#65A7C2;" d="M118.245,128.815c8.701-4.838,16.048-6.908,18.098,1.321c5.658,22.708,8.733,55.762-14.98,71.809
					c-7.347,4.972-46.359,1.345-54.857-23.238l0,0c0,0-5.461,3.439-10.479-5.156c-7.208-12.347,4.834-32.338,14.74-12.645
					c0,0,2.46-0.678,2.46-6.223c0-16.902-11.053-36.74,10.075-35.57C96.49,119.842,109.417,133.725,118.245,128.815z"/>
				<path style="fill:#0E2C4A;" d="M97.517,152.117c0.306,2.192-0.494,4.115-1.786,4.295c-1.292,0.18-2.587-1.451-2.892-3.643
					c-0.306-2.192,0.494-4.115,1.786-4.295C95.917,148.295,97.212,149.925,97.517,152.117z"/>
				<path style="fill:#0E2C4A;" d="M126.88,147.383c0.306,2.192-0.494,4.114-1.785,4.294c-1.292,0.18-2.587-1.451-2.892-3.643
					c-0.306-2.192,0.494-4.115,1.786-4.295C125.28,143.561,126.575,145.191,126.88,147.383z"/>
				<g>
					<g>
						<g>
							<path style="fill:#425B69;" d="M114.801,169.3c-0.045-0.098,1.579-0.572,3.755-2.084c0.53-0.388,1.101-0.838,1.602-1.415
								c0.482-0.568,0.961-1.294,0.914-2.081c-0.029-0.793-0.766-1.432-1.605-1.794c-0.423-0.203-0.867-0.315-1.341-0.523
								c-0.239-0.1-0.479-0.2-0.721-0.302c-0.244-0.098-0.445-0.274-0.671-0.409c-1.762-1.185-2.891-2.885-3.747-4.436
								c-0.857-1.569-1.433-3.07-1.867-4.34c-0.43-1.273-0.708-2.324-0.875-3.055c-0.163-0.732-0.22-1.145-0.187-1.152
								c0.033-0.007,0.151,0.389,0.369,1.103c0.222,0.713,0.548,1.742,1.015,2.988c0.471,1.243,1.074,2.714,1.935,4.239
								c0.857,1.509,1.976,3.145,3.623,4.248c0.211,0.125,0.399,0.293,0.623,0.382l0.663,0.278c0.432,0.196,0.946,0.333,1.386,0.55
								c0.22,0.121,0.439,0.241,0.655,0.36c0.194,0.162,0.387,0.323,0.577,0.481c0.155,0.199,0.313,0.403,0.432,0.62
								c0.061,0.245,0.207,0.476,0.18,0.727c0.036,1.014-0.541,1.787-1.059,2.382c-0.546,0.601-1.148,1.048-1.706,1.429
								c-1.129,0.751-2.137,1.184-2.833,1.464C115.211,169.217,114.811,169.329,114.801,169.3z"/>
						</g>
					</g>
				</g>
				<g>
					<g>
						<g>
							<path style="fill:#425B69;" d="M103.911,142.877c-0.013,0.066-1.184-0.08-3.066-0.369c-1.882-0.289-4.475-0.721-7.334-1.228
								c-2.858-0.507-5.442-0.992-7.308-1.368c-1.866-0.375-3.015-0.641-3.004-0.707c0.011-0.066,1.18,0.08,3.062,0.369
								c1.882,0.289,4.477,0.721,7.337,1.228c2.861,0.507,5.446,0.993,7.312,1.368C102.777,142.546,103.924,142.811,103.911,142.877
								z"/>
						</g>
					</g>
				</g>
				<g>
					<g>
						<g>
							<path style="fill:#425B69;" d="M126.468,132.279c0.075,0.111-2.172,1.752-5.017,3.665c-2.845,1.913-5.213,3.373-5.288,3.262
								c-0.075-0.111,2.172-1.752,5.017-3.665C124.026,133.628,126.394,132.167,126.468,132.279z"/>
						</g>
					</g>
				</g>
				<g>
					<g>
						<g>
							<path style="fill:#425B69;" d="M118.245,177.954c-0.007,0.033-0.199,0.042-0.536,0.032c-0.167-0.008-0.372-0.019-0.609-0.031
								c-0.236-0.01-0.505,0.04-0.8,0.057c-1.178,0.097-2.771,0.626-4.198,1.752c-1.409,1.143-2.432,2.472-3.09,3.474
								c-0.666,1.003-1.008,1.671-1.071,1.644c-0.061-0.024,0.175-0.753,0.779-1.823c0.597-1.067,1.605-2.477,3.083-3.675
								c1.496-1.186,3.236-1.705,4.475-1.713c0.311,0.004,0.593-0.021,0.836,0.015c0.242,0.044,0.45,0.083,0.62,0.114
								C118.071,177.868,118.251,177.921,118.245,177.954z"/>
						</g>
					</g>
				</g>
				<g>
					<g>
						<g>
							<path style="fill:#425B69;" d="M110.859,203.583c0,0.033-0.5,0.036-1.407,0.011c-0.911,0.016-2.213-0.149-3.823-0.367
								c-3.203-0.52-7.555-1.681-12.151-3.506c-4.604-1.805-8.626-3.777-11.472-5.316c-1.424-0.768-2.561-1.418-3.334-1.89
								c-0.775-0.468-1.188-0.753-1.171-0.781c0.018-0.029,0.462,0.2,1.264,0.616c0.803,0.413,1.964,1.011,3.399,1.75
								c2.879,1.458,6.91,3.372,11.49,5.168c4.573,1.816,8.873,3.019,12.034,3.62c1.588,0.259,2.874,0.475,3.775,0.517
								C110.361,203.488,110.859,203.549,110.859,203.583z"/>
						</g>
					</g>
				</g>
				<g>
					<g>
						<g>
							<path style="fill:#425B69;" d="M67.938,167.125c0.027,0.017-0.133,0.323-0.526,0.803c-0.408,0.441-1.011,1.208-2.181,1.484
								c-0.584,0.135-1.306-0.082-1.797-0.572c-0.455-0.476-0.967-1.083-1.003-1.916c-0.033-0.827,0.432-1.586,0.988-2.17
								c0.566-0.596,1.251-1.084,1.983-1.515c0.208-0.124,0.42-0.238,0.629-0.348c0.182-0.095,0.519-0.254,0.428-0.21
								c-0.008-0.023,0.018,0.05-0.019-0.054l-0.096-0.258l-0.201-0.507c-0.137-0.334-0.281-0.659-0.432-0.972
								c-0.293-0.632-0.63-1.209-0.964-1.746c-0.676-1.068-1.463-1.901-2.254-2.385c-0.793-0.518-1.574-0.51-2.083-0.515
								c-0.506,0.103-0.799,0.146-0.81,0.117s0.261-0.13,0.786-0.292c0.526-0.055,1.389-0.111,2.268,0.409
								c0.876,0.482,1.731,1.341,2.452,2.429c0.357,0.547,0.713,1.137,1.022,1.78c0.159,0.319,0.31,0.651,0.454,0.992l0.21,0.519
								l0.1,0.266l0.165,0.477c-0.504,0.221-0.571,0.264-0.804,0.38c-0.202,0.106-0.406,0.216-0.606,0.336
								c-0.705,0.414-1.361,0.881-1.884,1.424c-0.519,0.537-0.904,1.183-0.885,1.829c0.012,0.653,0.43,1.191,0.835,1.639
								c0.421,0.433,0.967,0.612,1.463,0.524c1.009-0.186,1.668-0.879,2.097-1.273C67.699,167.37,67.91,167.105,67.938,167.125z"/>
						</g>
					</g>
				</g>
			</g>
			<g>
				<g>
					<g>
						<path style="fill:#425B69;" d="M157.137,287.365c0.016-0.006,0.084,0.146,0.199,0.439c0.11,0.295,0.272,0.73,0.481,1.29
							c0.385,1.132,1.035,2.74,1.634,4.796c0.303,1.027,0.634,2.151,0.99,3.359c0.32,1.217,0.608,2.533,0.937,3.911
							c0.305,1.383,0.522,2.859,0.781,4.379c0.154,1.537,0.376,3.123,0.394,4.765c0.136,3.279-0.212,6.399-0.526,9.198
							c-0.332,2.8-0.349,5.334,0.014,7.426c0.094,0.522,0.183,1.019,0.268,1.489c0.13,0.461,0.252,0.895,0.367,1.301
							c0.115,0.406,0.222,0.785,0.321,1.133c0.127,0.339,0.243,0.65,0.347,0.928c0.202,0.561,0.359,0.997,0.466,1.293
							c0.102,0.298,0.148,0.458,0.133,0.465c-0.015,0.007-0.091-0.14-0.222-0.427c-0.126-0.289-0.313-0.715-0.552-1.264
							c-0.117-0.276-0.247-0.583-0.389-0.919c-0.111-0.348-0.232-0.725-0.363-1.132c-0.127-0.408-0.263-0.843-0.407-1.306
							c-0.097-0.475-0.199-0.977-0.306-1.505c-0.413-2.116-0.43-4.715-0.121-7.528c0.291-2.814,0.621-5.893,0.486-9.137
							c-0.018-1.623-0.235-3.195-0.38-4.718c-0.251-1.51-0.456-2.974-0.747-4.352c-0.316-1.372-0.587-2.684-0.889-3.9
							c-0.334-1.209-0.645-2.335-0.929-3.363c-0.555-2.061-1.154-3.684-1.484-4.832c-0.171-0.573-0.304-1.017-0.395-1.319
							C157.159,287.533,157.121,287.371,157.137,287.365z"/>
					</g>
				</g>
			</g>
			<g>
				<g>
					<g>
						<path style="fill:#425B69;" d="M63.769,355.747c-0.016-0.006,0.055-0.266,0.159-0.769c0.102-0.503,0.249-1.246,0.357-2.215
							c0.23-1.932,0.39-4.765,0.055-8.236c-0.322-3.468-1.109-7.564-2.502-11.957c-0.688-2.199-1.541-4.465-2.516-6.775
							c-0.501-1.155-1.044-2.292-1.535-3.517l-0.361-0.931c-0.121-0.311-0.169-0.645-0.257-0.968
							c-0.186-0.647-0.268-1.316-0.34-1.99c-0.287-2.701,0.104-5.343,0.701-7.798c0.604-2.462,1.452-4.76,2.43-6.87
							c1.057-2.05,1.752-4.126,2.181-6.119c0.414-1.989,0.535-3.915,0.203-5.605c-0.306-1.694-1.093-3.104-2.075-4.049
							c-0.97-0.966-2.057-1.502-2.953-1.853c-1.822-0.673-2.924-0.747-2.909-0.816c0.002-0.017,0.271,0.014,0.782,0.089
							c0.257,0.032,0.572,0.084,0.938,0.183c0.37,0.082,0.793,0.191,1.255,0.367c0.921,0.33,2.05,0.852,3.076,1.835
							c1.038,0.961,1.885,2.427,2.222,4.178c0.365,1.747,0.259,3.722-0.146,5.752c-0.416,2.027-1.118,4.16-2.169,6.226
							c-0.955,2.088-1.785,4.367-2.374,6.794c-0.583,2.42-0.961,5.017-0.681,7.636c0.196,2.643,1.454,4.939,2.448,7.269
							c0.976,2.326,1.825,4.61,2.505,6.827c1.379,4.429,2.137,8.563,2.417,12.061c0.294,3.5,0.08,6.354-0.209,8.291
							c-0.138,0.971-0.316,1.714-0.45,2.213C63.888,355.5,63.785,355.753,63.769,355.747z"/>
					</g>
				</g>
			</g>
		</g>
		<g style="clip-path:url(#SVGID_00000138567943526368914900000014338271589807342985_);">
			<g>
				<g>
					<path style="fill:#425B69;" d="M465.105,284.596c0.005-0.007,0.08,0.046,0.221,0.154c0.139,0.111,0.346,0.276,0.618,0.492
						c0.269,0.22,0.602,0.492,0.996,0.814c0.4,0.315,0.845,0.697,1.306,1.171c1.953,1.782,4.495,4.664,7.224,8.519
						c5.48,7.711,11.268,19.518,16.071,33.087c4.844,13.565,8.076,26.215,10.195,35.4c1.051,4.597,1.807,8.338,2.297,10.929
						c0.246,1.295,0.421,2.304,0.534,2.989c0.053,0.343,0.093,0.605,0.12,0.781c0.024,0.176,0.031,0.268,0.023,0.269
						c-0.008,0.001-0.032-0.087-0.072-0.26c-0.038-0.174-0.094-0.433-0.167-0.772c-0.142-0.679-0.353-1.68-0.623-2.97
						c-0.547-2.578-1.353-6.305-2.446-10.888c-2.203-9.156-5.483-21.776-10.318-35.314c-4.794-13.543-10.514-25.329-15.896-33.054
						c-2.681-3.862-5.17-6.763-7.073-8.578c-0.448-0.483-0.882-0.874-1.27-1.199c-0.38-0.335-0.702-0.618-0.962-0.847
						c-0.258-0.233-0.454-0.41-0.586-0.529C465.164,284.668,465.1,284.603,465.105,284.596z"/>
				</g>
			</g>
		</g>
		<g style="clip-path:url(#SVGID_00000138567943526368914900000014338271589807342985_);">
			<g>
				<g>
					<path style="fill:#6D96AD;" d="M305.383,255.339c0.017,0.001,0.025,0.243,0.024,0.705c-0.006,0.461-0.015,1.142-0.026,2.018
						c-0.032,1.752-0.079,4.287-0.137,7.419c-0.096,6.264-0.112,14.92,0.133,24.477c0.231,9.557,0.662,18.202,1.044,24.456
						c0.202,3.126,0.365,5.656,0.478,7.405c0.057,0.874,0.101,1.553,0.131,2.014c0.025,0.461,0.034,0.703,0.017,0.705
						c-0.016,0.002-0.057-0.238-0.114-0.696c-0.051-0.459-0.125-1.136-0.221-2.007c-0.175-1.744-0.403-4.271-0.632-7.398
						c-0.47-6.252-0.956-14.902-1.187-24.467c-0.245-9.565-0.175-18.229,0.009-24.496c0.072-3.134,0.2-5.668,0.291-7.419
						c0.051-0.875,0.09-1.555,0.117-2.015C305.341,255.579,305.366,255.338,305.383,255.339z"/>
				</g>
			</g>
		</g>
		<g style="clip-path:url(#SVGID_00000138567943526368914900000014338271589807342985_);">
			<path style="fill:#4A7087;" d="M399.187,174.401c0,0-62.516,17.333-65.023,73.128C330.889,320.384,320.835,459,320.835,459
				s192.56-35.912,207.744-76.196C543.763,342.519,539.213,159.193,399.187,174.401z"/>
			<path style="fill:#0E2C4A;" d="M426.036,100.213c0,0-2.163-17.782-15.837-24.298c-19.33-9.211-33.034-10.012-54.307-4.877
				c-22.142,5.345-34.567,24.391-6.597,46.021C372.861,135.284,433.062,135.911,426.036,100.213z"/>
			<path style="fill:#0E2C4A;" d="M391.402,75.419c0,0,18.521,0.658,27.367,9.908c20.363,21.295-1.732,77.803-15.911,75.63
				C390.224,159.022,391.402,75.419,391.402,75.419z"/>
			<path style="fill:#65A7C2;" d="M373.453,186.052c-7.761-18.368-12.761-36.468-12.761-36.468l43.318-5.677
				c0,0-0.906,10.554,11.841,36.103c1.388,2.783,0.487,6.167-2.115,7.87l0,0C397.38,201.287,379.488,200.335,373.453,186.052z"/>
			<path style="fill:#65A7C2;" d="M353.207,86.031c-7.815-2.554-16.131,2.085-18.119,10.062
				c-5.486,22.015-6.79,57.307,10.359,74.454c6.082,6.081,50.809,2.498,59.047-21.335l0,0c0,0,5.295,3.334,10.16-4.998
				c6.989-11.97-4.686-31.352-14.29-12.26c0,0-2.71,3.788-4.97-1.09c-6.407-13.829,8.717-34.572-15.519-36.402
				C367.107,93.498,362.516,89.072,353.207,86.031z"/>
			<path style="fill:#0E2C4A;" d="M366.721,121.615c-0.296,2.125,0.479,3.989,1.731,4.164c1.252,0.175,2.508-1.406,2.804-3.531
				c0.296-2.125-0.479-3.989-1.731-4.164C368.273,117.909,367.017,119.49,366.721,121.615z"/>
			<path style="fill:#0E2C4A;" d="M338.24,117.645c-0.296,2.125,0.479,3.989,1.731,4.164c1.252,0.175,2.508-1.406,2.804-3.531
				c0.296-2.125-0.479-3.989-1.731-4.164C339.792,113.939,338.536,115.52,338.24,117.645z"/>
			<g>
				<g>
					<g>
						<path style="fill:#425B69;" d="M350.154,136.956c-0.01,0.029-0.398-0.078-1.085-0.326c-0.675-0.271-1.653-0.689-2.749-1.418
							c-0.542-0.37-1.126-0.803-1.656-1.386c-0.503-0.578-1.064-1.327-1.029-2.314c-0.027-0.244,0.116-0.469,0.175-0.708
							c0.116-0.211,0.27-0.41,0.42-0.603c0.185-0.154,0.372-0.31,0.561-0.468c0.21-0.115,0.422-0.232,0.636-0.349
							c0.427-0.211,0.926-0.344,1.345-0.534l0.642-0.27c0.217-0.086,0.4-0.249,0.604-0.37c1.595-1.068,2.68-2.653,3.511-4.115
							c0.835-1.478,1.42-2.903,1.877-4.108c0.454-1.208,0.771-2.205,0.987-2.896c0.212-0.692,0.328-1.076,0.361-1.069
							c0.033,0.007-0.021,0.407-0.178,1.117c-0.161,0.709-0.43,1.728-0.846,2.963c-0.42,1.232-0.978,2.687-1.809,4.209
							c-0.83,1.504-1.924,3.154-3.634,4.303c-0.219,0.131-0.414,0.301-0.651,0.397l-0.7,0.293c-0.461,0.202-0.889,0.31-1.3,0.507
							c-0.812,0.35-1.524,0.969-1.552,1.733c-0.046,0.759,0.417,1.463,0.884,2.013c0.484,0.559,1.037,0.995,1.551,1.372
							C348.625,136.398,350.199,136.859,350.154,136.956z"/>
					</g>
				</g>
			</g>
			<g>
				<g>
					<g>
						<path style="fill:#425B69;" d="M355.893,151.065c-0.031-0.013,0.056-0.242,0.245-0.653c0.164-0.424,0.549-0.956,1.039-1.593
							c1.01-1.257,2.701-2.715,4.719-4.076c2.016-1.369,3.964-2.402,5.393-3.101c1.432-0.696,2.355-1.046,2.382-0.985
							c0.028,0.061-0.84,0.519-2.224,1.289c-1.381,0.773-3.288,1.846-5.28,3.199c-1.995,1.346-3.683,2.732-4.731,3.898
							C356.38,150.203,355.981,151.105,355.893,151.065z"/>
					</g>
				</g>
			</g>
			<g>
				<g>
					<g>
						<path style="fill:#425B69;" d="M367.117,172.44c-0.003-0.033,0.321-0.112,0.906-0.226c0.293-0.054,0.65-0.119,1.066-0.195
							c0.412-0.091,0.873-0.231,1.387-0.362c2.047-0.552,4.793-1.639,7.568-3.316c2.783-1.665,5.052-3.559,6.643-4.97
							c0.786-0.718,1.413-1.312,1.837-1.731c0.429-0.415,0.663-0.649,0.69-0.626c0.025,0.02-0.163,0.298-0.552,0.755
							c-0.384,0.462-0.977,1.097-1.74,1.853c-1.543,1.487-3.804,3.446-6.627,5.135c-2.815,1.702-5.636,2.76-7.734,3.233
							c-0.527,0.111-1,0.229-1.422,0.296c-0.425,0.045-0.791,0.084-1.091,0.116C367.45,172.458,367.12,172.473,367.117,172.44z"/>
					</g>
				</g>
			</g>
			<g>
				<g>
					<g>
						<path style="fill:#425B69;" d="M364.833,106.994c0.011-0.158,3.287,0.124,7.268-0.485c1.99-0.28,3.767-0.687,5.044-1.015
							c1.28-0.323,2.058-0.573,2.084-0.509c0.025,0.06-0.72,0.427-1.988,0.838c-1.265,0.416-3.054,0.882-5.071,1.166
							c-2.015,0.295-3.867,0.345-5.198,0.276C365.64,107.207,364.827,107.045,364.833,106.994z"/>
					</g>
				</g>
			</g>
			<g>
				<g>
					<g>
						<path style="fill:#425B69;" d="M341.992,97.788c0.098-0.114,2.18,1.602,4.932,3.454c2.74,1.872,5.11,3.151,5.058,3.261
							c-0.059,0.134-2.562-0.968-5.33-2.86c-1.388-0.936-2.578-1.877-3.404-2.599C342.421,98.327,341.951,97.835,341.992,97.788z"/>
					</g>
				</g>
			</g>
			<g>
				<g>
					<g>
						<path style="fill:#425B69;" d="M403.106,140.976c0.029-0.02,0.234,0.237,0.647,0.653c0.416,0.381,1.056,1.052,2.032,1.231
							c0.48,0.084,1.007-0.089,1.414-0.508c0.391-0.434,0.796-0.955,0.807-1.585c0.018-0.623-0.354-1.248-0.857-1.768
							c-0.507-0.526-1.142-0.978-1.825-1.379c-0.194-0.116-0.392-0.223-0.587-0.325c-0.221-0.11-0.298-0.158-0.786-0.371
							l0.162-0.468l0.097-0.258l0.204-0.503c0.139-0.331,0.286-0.652,0.44-0.962c0.299-0.624,0.645-1.196,0.992-1.727
							c0.7-1.055,1.53-1.888,2.38-2.355c0.853-0.504,1.692-0.449,2.202-0.395c0.509,0.157,0.773,0.257,0.762,0.286
							s-0.295-0.012-0.786-0.111c-0.493,0.006-1.249-0.002-2.017,0.501c-0.766,0.469-1.528,1.276-2.182,2.311
							c-0.324,0.52-0.65,1.08-0.933,1.692c-0.147,0.303-0.286,0.618-0.419,0.942l-0.195,0.491l-0.093,0.25
							c-0.031,0.088-0.009,0.026-0.016,0.046c-0.087-0.043,0.228,0.106,0.409,0.201c0.203,0.106,0.408,0.217,0.61,0.337
							c0.71,0.418,1.375,0.891,1.924,1.47c0.539,0.567,0.992,1.305,0.959,2.109c-0.035,0.811-0.534,1.399-0.975,1.862
							c-0.477,0.476-1.18,0.687-1.747,0.556c-1.137-0.269-1.721-1.014-2.116-1.442C403.234,141.29,403.08,140.993,403.106,140.976z"
							/>
					</g>
				</g>
			</g>
		</g>
		<path style="clip-path:url(#SVGID_00000138567943526368914900000014338271589807342985_);fill:#5B89A6;" d="M416.499,394.679
			l66.481-9.522c0,0,36.809-6.751,17.02,157.604s-141.571-73.467-134.692-108.743S416.499,394.679,416.499,394.679z"/>
		<g style="clip-path:url(#SVGID_00000138567943526368914900000014338271589807342985_);">
			<path style="fill:#EF3663;" d="M236.78,313.496c0,0-69.89,1.429-86.201,52.571C134.269,417.209,121.78,530,121.78,530
				s225.83,33.053,241.014-7.232C377.978,482.484,376.806,298.287,236.78,313.496z"/>
			<g>
				<path style="fill:#301714;" d="M193.269,202.945c0,0,1.163-22.769,35.413-26.924c23.425-2.842,21.227,11.004,45.931,6.557
					c24.704-4.447,28.574,59.42,13.656,66.163C258.356,262.265,185.527,242.285,193.269,202.945z"/>
				<path style="fill:#D16E41;" d="M289.413,241.844c0,0,4.887-8.448,8.417,0c3.678,8.802-4.628,27.88-10.345,25.157
					C281.768,264.28,289.413,241.844,289.413,241.844z"/>
				<path style="fill:#301714;" d="M221.948,199.121c0,0-14.743-1.746-28.679,3.824c-14.712,5.88-19.856,25.637-4.639,47.342
					c13.058,18.626,9.532,37.078,36.765,37.765C239.475,288.407,221.948,199.121,221.948,199.121z"/>
				<path style="fill:#E88048;" d="M263.541,316.274c-4.298-34.99,7.023-47.786,7.023-47.786l-54.714,3.135l1.359,40.172
					c0.227,6.717,4.516,12.622,10.833,14.916l0,0C248.504,339.806,265.624,333.233,263.541,316.274z"/>
				<path style="fill:#E88048;" d="M272.574,204.788c8.612-2.814,14.698,12.512,16.889,21.303
					c6.045,24.261,10.536,56.006-14.798,73.15c-7.849,5.312-49.53,1.436-58.609-24.828l0,0c0,0-5.835,3.674-11.196-5.508
					c-7.702-13.191,5.164-34.55,15.748-13.51c0,0,2.629-0.725,2.629-6.648c0-18.058,0.879-39.571,23.453-38.322
					C260.778,211.205,262.315,208.14,272.574,204.788z"/>
				<path style="fill:#301714;" d="M249.187,246.006c0.326,2.342-0.528,4.396-1.908,4.588c-1.38,0.192-2.763-1.55-3.09-3.892
					c-0.326-2.342,0.528-4.396,1.908-4.588C247.477,241.922,248.86,243.664,249.187,246.006z"/>
				<path style="fill:#301714;" d="M280.559,240.948c0.326,2.342-0.528,4.396-1.907,4.588c-1.38,0.192-2.763-1.55-3.09-3.892
					c-0.326-2.342,0.528-4.396,1.908-4.588C278.849,236.864,280.232,238.606,280.559,240.948z"/>
				<g>
					<g>
						<g>
							<path style="fill:#872B00;" d="M267.653,264.363c-0.047-0.101,1.69-0.603,4.019-2.217c0.568-0.415,1.179-0.896,1.715-1.513
								c0.516-0.607,1.032-1.385,0.981-2.233c-0.032-0.856-0.826-1.543-1.723-1.93c-0.453-0.218-0.929-0.338-1.435-0.56
								c-0.254-0.106-0.511-0.214-0.769-0.321c-0.26-0.105-0.474-0.292-0.715-0.436c-1.879-1.263-3.084-3.077-3.999-4.732
								c-0.915-1.675-1.532-3.278-1.997-4.633c-0.461-1.359-0.76-2.481-0.94-3.261c-0.176-0.782-0.239-1.222-0.206-1.229
								c0.033-0.007,0.157,0.417,0.388,1.18c0.235,0.762,0.582,1.862,1.08,3.195c0.502,1.329,1.145,2.901,2.065,4.532
								c0.916,1.613,2.111,3.364,3.875,4.544c0.226,0.134,0.427,0.314,0.668,0.409c0.238,0.1,0.475,0.199,0.71,0.298
								c0.463,0.21,1.01,0.355,1.48,0.587c0.235,0.129,0.468,0.257,0.698,0.383c0.207,0.172,0.412,0.343,0.614,0.512
								c0.164,0.211,0.332,0.428,0.459,0.659c0.064,0.26,0.22,0.505,0.191,0.771c0.039,1.076-0.574,1.899-1.127,2.535
								c-0.582,0.641-1.224,1.118-1.819,1.527c-1.205,0.803-2.28,1.266-3.023,1.568C268.09,264.271,267.663,264.392,267.653,264.363
								z"/>
						</g>
					</g>
				</g>
				<g>
					<g>
						<g>
							<path style="fill:#872B00;" d="M247.79,230.66c-0.007,0.033-0.212,0.041-0.572,0.028c-0.179-0.01-0.398-0.022-0.651-0.035
								c-0.253-0.011-0.541,0.04-0.857,0.058c-1.26,0.1-2.967,0.665-4.494,1.87c-1.508,1.223-2.6,2.646-3.301,3.718
								c-0.709,1.074-1.072,1.789-1.134,1.762c-0.061-0.024,0.195-0.8,0.842-1.942c0.64-1.138,1.717-2.642,3.294-3.92
								c1.596-1.265,3.45-1.82,4.771-1.831c0.332,0.004,0.632-0.024,0.892,0.013c0.258,0.046,0.48,0.086,0.662,0.119
								C247.603,230.572,247.796,230.627,247.79,230.66z"/>
						</g>
					</g>
				</g>
				<g>
					<g>
						<g>
							<path style="fill:#872B00;" d="M262.568,301.297c-0.002,0.033-0.56,0.004-1.57-0.079c-1.01-0.083-2.479-0.171-4.252-0.575
								c-3.561-0.654-8.405-2.218-13.202-5.014c-4.83-2.743-8.612-6.117-11.134-8.707c-1.257-1.307-2.21-2.424-2.829-3.227
								c-0.314-0.398-0.544-0.717-0.693-0.939c-0.152-0.219-0.218-0.345-0.205-0.354c0.03-0.021,0.375,0.417,1.044,1.173
								c0.66,0.762,1.647,1.838,2.927,3.106c2.57,2.513,6.352,5.813,11.133,8.528c4.749,2.768,9.513,4.364,13.029,5.099
								c1.749,0.444,3.202,0.583,4.201,0.723C262.016,301.17,262.569,301.264,262.568,301.297z"/>
						</g>
					</g>
				</g>
				<g>
					<g>
						<g>
							<path style="fill:#872B00;" d="M280.118,224.81c-0.007,0.033-0.212,0.041-0.572,0.028c-0.179-0.01-0.397-0.022-0.651-0.035
								c-0.253-0.011-0.541,0.04-0.857,0.058c-1.26,0.1-2.967,0.665-4.494,1.87c-1.508,1.222-2.6,2.646-3.302,3.718
								c-0.709,1.074-1.072,1.789-1.134,1.762c-0.061-0.024,0.195-0.8,0.842-1.942c0.64-1.138,1.717-2.641,3.294-3.92
								c1.596-1.265,3.45-1.82,4.771-1.831c0.332,0.004,0.632-0.024,0.892,0.014c0.258,0.046,0.48,0.086,0.662,0.119
								C279.932,224.723,280.125,224.777,280.118,224.81z"/>
						</g>
					</g>
				</g>
				<g>
					<g>
						<g>
							<path style="fill:#872B00;" d="M217.585,262.04c0.026,0.017-0.146,0.342-0.567,0.853c-0.436,0.469-1.083,1.287-2.327,1.579
								c-0.621,0.143-1.386-0.088-1.908-0.61c-0.484-0.508-1.029-1.153-1.066-2.037c-0.035-0.877,0.46-1.684,1.052-2.307
								c0.603-0.635,1.334-1.155,2.115-1.615c0.222-0.133,0.448-0.254,0.672-0.371l0.336-0.167l0.133-0.063l0.001,0v-0.001
								L216,257.23l-0.102-0.276l-0.215-0.542c-0.146-0.357-0.301-0.704-0.463-1.039c-0.314-0.676-0.674-1.293-1.032-1.867
								c-0.723-1.141-1.567-2.033-2.415-2.549c-0.85-0.554-1.687-0.544-2.232-0.547c-0.541,0.112-0.853,0.16-0.865,0.131
								s0.281-0.135,0.841-0.306c0.561-0.057,1.481-0.115,2.417,0.44c0.933,0.515,1.844,1.432,2.612,2.593
								c0.381,0.584,0.761,1.213,1.09,1.901c0.17,0.341,0.331,0.695,0.484,1.059l0.224,0.554l0.107,0.283l0.171,0.495
								c-0.172,0.078-0.346,0.158-0.523,0.238l-0.324,0.162c-0.216,0.113-0.434,0.231-0.648,0.359
								c-0.754,0.443-1.456,0.942-2.016,1.524c-0.556,0.575-0.97,1.269-0.949,1.966c0.013,0.703,0.464,1.28,0.897,1.76
								c0.452,0.464,1.041,0.657,1.575,0.562c1.083-0.202,1.786-0.945,2.243-1.367C217.333,262.305,217.556,262.02,217.585,262.04z"
								/>
						</g>
					</g>
				</g>
				<path style="fill:#FFFFFF;" d="M254.07,270.15c0,0,16.494,2.118,28.829-3.295C282.899,266.856,270.87,296.995,254.07,270.15z"/>
			</g>
			<g>
				<g>
					<g>
						<path style="fill:#B5294B;" d="M314.417,461.941c-0.016-0.005,0.031-0.247,0.135-0.702c0.094-0.458,0.288-1.118,0.455-1.987
							c0.342-1.736,0.737-4.271,0.908-7.431c0.379-6.323-0.363-15.095-2.217-24.582c-1.856-9.492-4.307-17.917-6.217-23.96
							c-0.955-3.023-1.784-5.452-2.363-7.129c-0.29-0.838-0.515-1.489-0.668-1.93c-0.151-0.442-0.226-0.676-0.21-0.682
							c0.016-0.006,0.121,0.216,0.301,0.647c0.18,0.431,0.438,1.071,0.754,1.901c0.634,1.658,1.514,4.073,2.512,7.087
							c1.996,6.025,4.505,14.453,6.367,23.974c1.86,9.515,2.553,18.339,2.083,24.695c-0.216,3.176-0.665,5.72-1.066,7.452
							c-0.196,0.867-0.421,1.523-0.545,1.973C314.511,461.713,314.432,461.946,314.417,461.941z"/>
					</g>
				</g>
			</g>
			<g>
				<g>
					<g>
						<path style="fill:#B5294B;" d="M221.335,461.941c0,0,0.13-0.543,0.756-1.368c0.614-0.83,1.677-1.918,3.112-3.237
							c2.873-2.64,7.285-6.155,12.755-10.462c2.732-2.158,5.73-4.514,8.892-7.109c3.139-2.614,6.529-5.4,9.671-8.737
							c0.757-0.853,1.542-1.714,2.165-2.689c0.608-0.957,1.208-2.056,0.846-3.133c-0.334-1.075-1.435-1.741-2.543-2.135
							c-1.128-0.407-2.346-0.625-3.577-0.772c-4.952-0.531-10.154-0.194-15.452,0.029c-5.304,0.232-10.499,0.573-15.529,0.178
							c-1.255-0.107-2.5-0.283-3.712-0.595c-1.186-0.339-2.437-0.784-3.268-1.813c-0.42-0.511-0.586-1.175-0.661-1.776
							c-0.085-0.619-0.025-1.241,0.081-1.84c0.249-1.198,0.784-2.288,1.432-3.258c1.305-1.947,2.965-3.518,4.633-4.932
							c1.683-1.406,3.415-2.641,5.128-3.771c3.43-2.256,6.779-4.104,9.87-5.711c6.196-3.197,11.383-5.422,14.979-6.915
							c1.801-0.743,3.21-1.293,4.169-1.656c0.481-0.177,0.848-0.312,1.095-0.402c0.248-0.087,0.377-0.127,0.38-0.119
							c0.003,0.008-0.12,0.063-0.362,0.165c-0.243,0.101-0.604,0.251-1.077,0.447c-0.945,0.398-2.338,0.984-4.131,1.739
							c-3.571,1.545-8.732,3.816-14.894,7.045c-3.074,1.623-6.404,3.483-9.807,5.742c-1.699,1.131-3.415,2.366-5.075,3.762
							c-1.646,1.404-3.277,2.962-4.534,4.851c-0.626,0.941-1.129,1.985-1.359,3.101c-0.096,0.558-0.152,1.131-0.072,1.697
							c0.076,0.572,0.214,1.115,0.57,1.546c0.703,0.88,1.878,1.325,3.024,1.644c1.171,0.299,2.393,0.472,3.632,0.576
							c4.97,0.384,10.163,0.044,15.464-0.189c5.303-0.222,10.506-0.56,15.532-0.017c1.252,0.151,2.497,0.374,3.683,0.803
							c0.591,0.217,1.171,0.488,1.682,0.881c0.512,0.384,0.942,0.924,1.139,1.552c0.093,0.313,0.17,0.633,0.128,0.961l-0.05,0.49
							c-0.026,0.159-0.096,0.3-0.143,0.45l-0.158,0.443l-0.218,0.403c-0.144,0.269-0.285,0.54-0.465,0.779
							c-0.652,1.012-1.448,1.88-2.219,2.743c-3.185,3.363-6.586,6.137-9.744,8.744c-3.178,2.586-6.19,4.927-8.935,7.068
							c-5.497,4.272-9.937,7.743-12.84,10.332c-1.45,1.294-2.529,2.355-3.161,3.157
							C221.524,461.429,221.366,461.953,221.335,461.941z"/>
					</g>
				</g>
			</g>
		</g>
		<g style="clip-path:url(#SVGID_00000138567943526368914900000014338271589807342985_);">
			<path style="fill:#557687;" d="M444.01,661.88c0,0-185.49,46.79-189.33-51.08c-0.12-2.87-0.05-83.2,45.99-148.86
				c2.22-3.17,4.8-6.6,7.84-10.11c8.59-9.94,20.82-20.42,38.77-26.71c13.45-0.04,29.2,1.21,45.42,7.09
				c5.22,1.88,10.47,4.25,15.72,7.2c2.12,1.19,2.89,1.63,3,1.67c-0.23-0.15-2.02-1.19-2.02-1.21c0,0,0,0,0.01,0
				c0.14,0.07,0.29,0.14,0.45,0.22c3.27,1.52,6.3,3.41,9.11,5.62c0.01,0.01,0.02,0.01,0.02,0.02c1.06,0.82,2.09,1.7,3.09,2.63
				C474.24,496.37,444.01,661.88,444.01,661.88z"/>
			<g>
				<path style="fill:#0E2C4A;" d="M419.464,304.994c0,0-3.252-30.149-36.695-34.206c-22.873-2.775-26.566,6.972-50.695,10.989
					c-24.177,4.025-25.828,55.289-11.262,61.874C350.022,356.856,427.024,343.406,419.464,304.994z"/>
				<path style="fill:#558CA3;" d="M325.586,342.977c0,0-4.772-8.249-8.219,0c-3.591,8.594,4.519,27.223,10.101,24.565
					C333.05,364.883,325.586,342.977,325.586,342.977z"/>
				<path style="fill:#0E2C4A;" d="M391.461,301.26c0,0,18.562-12.562,31.231-7.161c23.151,9.871,8.837,45.211,15.237,65.463
					c10.071,31.87,11.136,48.348,1.699,61.808c-12.751,18.187-52.019,22.498-74.319,12.647
					C352.728,428.461,391.461,301.26,391.461,301.26z"/>
				<path style="fill:#65A7C2;" d="M343.24,428.021c11.257-24.566,0.75-59.029,0.75-59.029l53.225,5.787l-7.889,61.465l-5.196-0.577
					C364.15,448.453,336.29,443.188,343.24,428.021z"/>
				<path style="fill:#65A7C2;" d="M342.028,306.793c-8.409-2.748-15.529,8.732-17.668,17.316
					c-5.903,23.689-9.111,58.172,15.627,74.912c7.664,5.187,48.363,1.403,57.228-24.243l0,0c0,0,5.698,3.587,10.932-5.379
					c7.52-12.881-5.043-33.736-15.376-13.192c0,0-2.567-0.707-2.567-6.492c0-17.633,11.531-38.328-10.511-37.108
					C365.935,313.37,352.045,310.066,342.028,306.793z"/>
				<path style="fill:#0E2C4A;" d="M364.864,347.04c-0.319,2.287,0.515,4.292,1.863,4.48c1.348,0.188,2.698-1.513,3.017-3.8
					c0.319-2.287-0.515-4.292-1.863-4.48C366.533,343.052,365.183,344.753,364.864,347.04z"/>
				<path style="fill:#0E2C4A;" d="M334.232,342.102c-0.319,2.287,0.515,4.292,1.862,4.48c1.348,0.188,2.698-1.513,3.017-3.8
					c0.319-2.287-0.515-4.292-1.863-4.48C335.901,338.114,334.55,339.815,334.232,342.102z"/>
				<g>
					<g>
						<g>
							<path style="fill:#425B69;" d="M346.833,364.965c-0.01,0.029-0.427-0.089-1.164-0.357c-0.726-0.293-1.776-0.745-2.953-1.53
								c-0.582-0.399-1.209-0.864-1.778-1.491c-0.54-0.621-1.14-1.426-1.102-2.479c-0.029-0.261,0.124-0.501,0.187-0.755
								c0.124-0.226,0.288-0.438,0.449-0.645c0.198-0.165,0.398-0.332,0.601-0.501c0.225-0.124,0.453-0.248,0.682-0.374
								c0.459-0.226,0.993-0.368,1.445-0.573l0.693-0.291c0.235-0.093,0.431-0.268,0.651-0.399c1.721-1.152,2.888-2.86,3.782-4.435
								c0.898-1.592,1.526-3.127,2.017-4.424c0.487-1.301,0.826-2.375,1.056-3.118c0.226-0.745,0.349-1.158,0.382-1.152
								c0.033,0.007-0.028,0.437-0.199,1.2c-0.175,0.763-0.466,1.858-0.916,3.185c-0.453,1.324-1.055,2.89-1.949,4.526
								c-0.893,1.617-2.07,3.389-3.906,4.623c-0.236,0.141-0.445,0.323-0.699,0.426c-0.252,0.105-0.503,0.21-0.751,0.314
								c-0.494,0.217-0.958,0.334-1.4,0.547c-0.876,0.378-1.648,1.047-1.68,1.88c-0.049,0.826,0.453,1.584,0.957,2.177
								c0.523,0.602,1.119,1.072,1.673,1.477C345.184,364.373,346.879,364.865,346.833,364.965z"/>
						</g>
					</g>
				</g>
				<g>
					<g>
						<g>
							<path style="fill:#425B69;" d="M366.228,332.056c-0.007-0.033,0.182-0.087,0.535-0.158c0.178-0.032,0.395-0.072,0.647-0.117
								c0.254-0.037,0.547-0.01,0.871-0.014c1.291,0.01,3.103,0.552,4.662,1.788c1.54,1.249,2.592,2.718,3.216,3.83
								c0.631,1.115,0.88,1.874,0.819,1.898c-0.062,0.027-0.418-0.67-1.111-1.718c-0.686-1.047-1.753-2.435-3.224-3.629
								c-1.49-1.176-3.155-1.728-4.385-1.827c-0.308-0.017-0.589-0.068-0.836-0.057c-0.248,0.013-0.461,0.024-0.636,0.034
								C366.435,332.097,366.235,332.089,366.228,332.056z"/>
						</g>
					</g>
				</g>
				<g>
					<g>
						<g>
							<path style="fill:#425B69;" d="M334.661,326.344c-0.007-0.033,0.182-0.087,0.534-0.158c0.178-0.032,0.395-0.072,0.647-0.117
								c0.254-0.037,0.547-0.01,0.871-0.014c1.291,0.01,3.103,0.552,4.662,1.788c1.54,1.249,2.592,2.718,3.216,3.83
								c0.631,1.116,0.88,1.874,0.819,1.898c-0.062,0.027-0.418-0.67-1.111-1.718c-0.686-1.047-1.753-2.435-3.224-3.628
								c-1.49-1.176-3.155-1.728-4.385-1.827c-0.308-0.017-0.589-0.068-0.836-0.057c-0.248,0.013-0.461,0.024-0.636,0.034
								C334.868,326.385,334.668,326.377,334.661,326.344z"/>
						</g>
					</g>
				</g>
				<g>
					<g>
						<g>
							<path style="fill:#425B69;" d="M343.24,373.993c-0.007-0.033,0.182-0.087,0.534-0.158c0.178-0.032,0.395-0.072,0.647-0.117
								c0.254-0.037,0.547-0.01,0.871-0.014c1.291,0.01,3.103,0.552,4.662,1.788c1.54,1.249,2.592,2.718,3.216,3.83
								c0.631,1.116,0.88,1.874,0.819,1.898c-0.063,0.027-0.418-0.67-1.111-1.718c-0.686-1.047-1.753-2.435-3.224-3.628
								c-1.49-1.176-3.155-1.728-4.385-1.827c-0.308-0.017-0.589-0.068-0.836-0.057c-0.248,0.013-0.461,0.024-0.636,0.034
								C343.447,374.035,343.247,374.026,343.24,373.993z"/>
						</g>
					</g>
				</g>
				<g>
					<g>
						<g>
							<path style="fill:#425B69;" d="M350.945,400.73c0-0.033,0.52-0.097,1.456-0.182c0.467-0.058,1.043-0.056,1.701-0.178
								c0.659-0.105,1.409-0.225,2.238-0.358c3.299-0.626,7.786-1.879,12.557-3.774c4.778-1.874,8.984-3.872,11.986-5.395
								c1.497-0.772,2.708-1.397,3.545-1.828c0.836-0.436,1.299-0.676,1.316-0.646c0.017,0.028-0.415,0.324-1.223,0.811
								c-0.807,0.491-1.993,1.167-3.479,1.968c-2.969,1.604-7.166,3.66-11.968,5.542c-4.794,1.904-9.333,3.117-12.674,3.66
								c-0.839,0.107-1.599,0.204-2.266,0.29c-0.665,0.097-1.25,0.067-1.721,0.097C351.466,400.765,350.945,400.764,350.945,400.73z
								"/>
						</g>
					</g>
				</g>
				<g>
					<g>
						<g>
							<path style="fill:#425B69;" d="M395.721,362.697c0.029-0.02,0.247,0.258,0.691,0.707c0.447,0.412,1.134,1.137,2.189,1.333
								c0.52,0.092,1.094-0.095,1.534-0.548c0.423-0.468,0.862-1.031,0.874-1.716c0.02-0.678-0.383-1.354-0.926-1.915
								c-0.547-0.568-1.232-1.055-1.967-1.487c-0.209-0.125-0.422-0.24-0.633-0.35c-0.251-0.125-0.303-0.162-0.831-0.393
								l0.169-0.488l0.105-0.277l0.219-0.541c0.149-0.356,0.307-0.701,0.473-1.034c0.322-0.671,0.693-1.286,1.065-1.857
								c0.751-1.134,1.642-2.03,2.553-2.533c0.915-0.542,1.814-0.485,2.362-0.429c0.547,0.167,0.832,0.272,0.82,0.301
								c-0.011,0.029-0.316-0.018-0.844-0.126c-0.532,0.004-1.348-0.006-2.177,0.535c-0.827,0.504-1.65,1.374-2.356,2.489
								c-0.349,0.56-0.701,1.163-1.007,1.822c-0.158,0.327-0.309,0.666-0.452,1.014l-0.21,0.529l-0.1,0.269l-0.023,0.065v0.001
								c-0.097-0.047,0.273,0.127,0.455,0.223c0.219,0.114,0.439,0.233,0.656,0.362c0.763,0.449,1.477,0.958,2.067,1.578
								c0.579,0.609,1.063,1.398,1.028,2.257c-0.037,0.865-0.57,1.496-1.043,1.993c-0.51,0.51-1.26,0.736-1.867,0.596
								c-1.217-0.286-1.848-1.085-2.274-1.544C395.862,363.032,395.695,362.714,395.721,362.697z"/>
						</g>
					</g>
				</g>
				<path style="fill:#65A7C2;" d="M422.36,448.25c0,0-0.09,0.04-0.28,0.11c-4.04,1.55-51.88,19.02-113.57,3.47
					c8.59-9.94,20.82-20.42,38.77-26.71c3.87-0.82,5.45-5.11,6.71-7.9c3.26-7.25,13.9,2.64,38.71,14.99
					c4.71,2.34,9.94,4.78,15.72,7.2c0.29,0.12,0.62,0.27,0.98,0.45l0.01,0.01c0.14,0.07,0.29,0.14,0.45,0.22
					c2.51,1.3,6.21,3.61,9.11,5.62c0.01,0.01,0.02,0.01,0.02,0.02C420.37,446.68,421.56,447.57,422.36,448.25z"/>
			</g>
		</g>
		<g style="clip-path:url(#SVGID_00000138567943526368914900000014338271589807342985_);">
			<path style="fill:#0E2C4A;" d="M0,546.248c0,0,16.515-18.535,35.869-77.941c7.775-23.865,75.553-35.16,98.396-27.369
				c60.913,20.776,79.146,66.47,84.88,109.879C224.879,594.226,0,546.248,0,546.248z"/>
			<g>
				<path style="fill:#0E2C4A;" d="M107.097,353.931c0,0,0.648-26.061,23.216-34.884c19.943-7.796,28.2,13.989,50.617,9.953
					c22.417-4.036,36.889,29.191,8.919,50.822C166.283,398.046,100.071,389.629,107.097,353.931z"/>
				<path style="fill:#0E2C4A;" d="M135.481,332.922c0,0-24.834,0.455-33.68,9.705c-20.363,21.295,6.049,83.729,20.228,81.556
					C134.663,422.248,135.481,332.922,135.481,332.922z"/>
				<path style="fill:#96C4E0;" d="M151.434,449.278c7.113-18.628,12.761-36.468,12.761-36.468l-43.318-5.678
					c0,0-1.323,1.891-12.558,35.642c-1.031,3.096,0.126,6.508,2.831,8.332h0C129.346,465.013,147.721,459,151.434,449.278z"/>
				<path style="fill:#96C4E0;" d="M171.679,349.256c7.815-2.553,16.131,2.085,18.119,10.062
					c5.486,22.015,6.79,57.307-10.359,74.454c-6.082,6.081-50.808,2.498-59.047-21.335l0,0c0,0-5.295,3.334-10.16-4.999
					c-6.989-11.97,4.686-31.352,14.29-12.26c0,0,2.71,3.788,4.97-1.09c6.407-13.829-13.3-40.563,7.184-39.429
					C149.461,355.368,162.37,352.298,171.679,349.256z"/>
				<path style="fill:#0E2C4A;" d="M158.166,384.841c0.296,2.125-0.479,3.989-1.731,4.163c-1.252,0.175-2.508-1.406-2.804-3.531
					c-0.296-2.125,0.479-3.989,1.731-4.164C156.614,381.135,157.869,382.716,158.166,384.841z"/>
				<path style="fill:#0E2C4A;" d="M184.316,373.764c0.296,2.125-0.479,3.989-1.731,4.164c-1.252,0.174-2.508-1.406-2.804-3.531
					c-0.296-2.125,0.479-3.989,1.731-4.164C182.765,370.058,184.02,371.639,184.316,373.764z"/>
				<g>
					<g>
						<g>
							<path style="fill:#4E6C7C;" d="M174.732,400.182c-0.044-0.097,1.529-0.559,3.638-2.025c0.514-0.377,1.067-0.813,1.551-1.372
								c0.467-0.55,0.93-1.253,0.884-2.013c-0.028-0.765-0.74-1.383-1.552-1.733c-0.41-0.197-0.839-0.305-1.3-0.507l-0.7-0.293
								c-0.237-0.096-0.432-0.266-0.651-0.397c-1.71-1.15-2.804-2.799-3.635-4.303c-0.83-1.522-1.389-2.978-1.809-4.209
								c-0.416-1.234-0.685-2.253-0.846-2.963c-0.157-0.71-0.211-1.111-0.178-1.117c0.033-0.007,0.148,0.377,0.361,1.069
								c0.216,0.69,0.533,1.688,0.987,2.896c0.457,1.205,1.042,2.63,1.877,4.108c0.831,1.462,1.916,3.047,3.511,4.115
								c0.204,0.121,0.386,0.284,0.604,0.37l0.642,0.27c0.418,0.19,0.918,0.323,1.345,0.534c0.214,0.117,0.426,0.234,0.636,0.349
								c0.189,0.158,0.376,0.313,0.561,0.468c0.15,0.193,0.304,0.392,0.42,0.603c0.059,0.238,0.202,0.463,0.175,0.708
								c0.035,0.987-0.526,1.736-1.029,2.314c-0.53,0.583-1.114,1.016-1.656,1.386c-1.096,0.728-2.074,1.147-2.749,1.418
								C175.13,400.104,174.743,400.211,174.732,400.182z"/>
						</g>
					</g>
				</g>
				<g>
					<g>
						<g>
							<path style="fill:#4E6C7C;" d="M168.994,414.29c-0.061,0.056-0.739-0.635-1.919-1.657c-1.178-1.024-2.854-2.381-4.778-3.788
								c-1.925-1.406-3.712-2.619-5.01-3.493c-1.299-0.873-2.105-1.411-2.071-1.469c0.033-0.058,0.904,0.378,2.255,1.179
								c1.35,0.803,3.176,1.977,5.114,3.392c1.936,1.416,3.595,2.829,4.723,3.927c0.561,0.553,1.002,1.013,1.28,1.355
								C168.873,414.072,169.019,414.268,168.994,414.29z"/>
						</g>
					</g>
				</g>
				<g>
					<g>
						<g>
							<path style="fill:#4E6C7C;" d="M157.77,435.666c-0.003,0.033-0.333,0.018-0.932-0.039c-0.299-0.032-0.666-0.071-1.091-0.116
								c-0.422-0.066-0.894-0.185-1.421-0.296c-2.099-0.473-4.919-1.532-7.734-3.233c-2.823-1.689-5.084-3.648-6.627-5.135
								c-0.763-0.756-1.356-1.391-1.74-1.853c-0.389-0.457-0.576-0.734-0.551-0.755c0.027-0.022,0.261,0.211,0.69,0.626
								c0.424,0.42,1.05,1.014,1.837,1.731c1.59,1.411,3.859,3.305,6.643,4.97c2.776,1.677,5.521,2.765,7.568,3.316
								c0.514,0.131,0.975,0.271,1.387,0.362c0.415,0.076,0.773,0.142,1.066,0.195C157.449,435.553,157.773,435.632,157.77,435.666z
								"/>
						</g>
					</g>
				</g>
				<g>
					<g>
						<g>
							<path style="fill:#4E6C7C;" d="M156.32,367.587c-0.007,0.033-0.193,0.043-0.52,0.034c-0.162-0.008-0.36-0.017-0.59-0.028
								c-0.229-0.009-0.49,0.039-0.776,0.056c-1.141,0.095-2.683,0.608-4.065,1.699c-1.365,1.107-2.357,2.395-2.996,3.365
								c-0.646,0.972-0.98,1.618-1.043,1.591c-0.061-0.024,0.166-0.731,0.751-1.77c0.578-1.036,1.555-2.404,2.989-3.567
								c1.452-1.151,3.141-1.654,4.343-1.66c0.302,0.004,0.575-0.02,0.811,0.016c0.234,0.044,0.436,0.081,0.602,0.112
								C156.152,367.502,156.327,367.555,156.32,367.587z"/>
						</g>
					</g>
				</g>
				<g>
					<g>
						<g>
							<path style="fill:#4E6C7C;" d="M182.895,361.014c-0.007,0.033-0.194,0.043-0.52,0.034c-0.162-0.008-0.36-0.017-0.59-0.028
								c-0.229-0.009-0.49,0.039-0.776,0.056c-1.141,0.095-2.683,0.608-4.065,1.699c-1.365,1.107-2.357,2.394-2.996,3.365
								c-0.646,0.971-0.98,1.618-1.043,1.591c-0.061-0.025,0.166-0.731,0.751-1.77c0.578-1.036,1.555-2.404,2.989-3.566
								c1.452-1.151,3.141-1.654,4.343-1.66c0.302,0.004,0.575-0.02,0.811,0.016c0.234,0.044,0.436,0.081,0.602,0.112
								C182.727,360.928,182.902,360.981,182.895,361.014z"/>
						</g>
					</g>
				</g>
				<g>
					<g>
						<g>
							<path style="fill:#4E6C7C;" d="M121.78,404.201c0.027,0.018-0.128,0.314-0.508,0.78c-0.395,0.428-0.979,1.173-2.116,1.442
								c-0.567,0.132-1.27-0.079-1.747-0.556c-0.442-0.462-0.94-1.051-0.975-1.862c-0.032-0.804,0.42-1.542,0.959-2.109
								c0.549-0.579,1.214-1.052,1.924-1.47c0.202-0.12,0.407-0.231,0.61-0.337c0.182-0.094,0.497-0.243,0.409-0.201
								c-0.007-0.02,0.016,0.042-0.016-0.046l-0.093-0.25l-0.195-0.491c-0.133-0.324-0.272-0.639-0.419-0.942
								c-0.284-0.613-0.61-1.172-0.933-1.692c-0.654-1.035-1.416-1.843-2.182-2.311c-0.768-0.503-1.523-0.495-2.017-0.501
								c-0.49,0.099-0.774,0.139-0.786,0.111c-0.011-0.029,0.253-0.128,0.762-0.285c0.51-0.054,1.349-0.109,2.202,0.395
								c0.85,0.467,1.68,1.301,2.38,2.355c0.347,0.53,0.692,1.102,0.992,1.727c0.155,0.31,0.301,0.631,0.44,0.962l0.204,0.503
								l0.097,0.258l0.162,0.468c-0.488,0.213-0.565,0.261-0.785,0.371c-0.196,0.103-0.393,0.209-0.587,0.325
								c-0.683,0.401-1.318,0.853-1.825,1.379c-0.503,0.52-0.874,1.144-0.857,1.768c0.011,0.63,0.415,1.15,0.807,1.585
								c0.407,0.419,0.933,0.592,1.414,0.508c0.975-0.179,1.616-0.85,2.032-1.231C121.546,404.438,121.752,404.181,121.78,404.201z"
								/>
						</g>
					</g>
				</g>
			</g>
		</g>
	</g>
</g>
</svg>
